#!OML:ASF F:\VICON\USERDATA\INSTALL\SteveWalk\SteveWalk.ASF
:FULLY-SPECIFIED
:DEGREES


354
root 0.477015 15.8979 29.1702 17.3985 4.37502 -0.0658516
lowerback -15.422 -1.77155 2.21631
upperback -4.88775 -2.77528 2.42791
thorax 3.46937 -1.36644 0.795991
lowerneck -5.91335 0.0479579 0.639415
upperneck 9.10895 0.373603 -3.7921
head 4.0555 0.0303846 -1.36317
rclavicle -2.25372e-014 -1.11319e-014
rhumerus -97.4697 -44.112 11.6626
rradius 10.5268
rwrist 70.3272
rhand -14.5554 -32.313
rfingers 7.12502
rthumb 11.5935 -61.9723
lclavicle -2.25372e-014 -1.11319e-014
lhumerus -25.3538 -3.65427 85.3711
lradius 56.1882
lwrist 16.2697
lhand -24.8616 -18.1512
lfingers 7.12502
lthumb 1.6452 11.8222
rfemur -48.3255 -1.1049 23.7837
rtibia 37.6022
rfoot -8.75951 6.08333
rtoes -4.38646
lfemur -8.53969 -0.391071 -19.7104
ltibia 47.7082
lfoot 14.7724 -16.4672
ltoes -10.2761
355
root 0.477973 15.9281 29.4075 17.0441 4.37705 -0.244848
lowerback -15.3907 -1.70099 2.45953
upperback -4.75655 -2.72458 2.47995
thorax 3.58191 -1.33949 0.72142
lowerneck -5.93796 0.0972619 0.570145
upperneck 9.21101 0.449006 -3.77969
head 4.09835 0.0645179 -1.34393
rclavicle 9.23106e-015 -9.54166e-015
rhumerus -93.5925 -45.1198 5.88112
rradius 10.7311
rwrist 65.7451
rhand -14.4318 -33.2878
rfingers 7.12502
rthumb 11.7128 -62.9404
lclavicle 9.23106e-015 -9.54166e-015
lhumerus -26.1701 -3.59312 85.7061
lradius 55.6975
lwrist 16.5161
lhand -24.849 -18.3658
lfingers 7.12502
lthumb 1.65744 11.6075
rfemur -47.2144 -1.52146 24.3036
rtibia 38.048
rfoot -9.65219 6.72851
rtoes -3.69502
lfemur -9.48862 -0.497554 -19.4912
ltibia 50.3823
lfoot 17.3584 -16.1978
ltoes -13.1545
356
root 0.467934 15.9567 29.632 16.6701 4.21057 -0.587593
lowerback -15.2514 -1.53734 2.65844
upperback -4.62579 -2.54393 2.60824
thorax 3.64255 -1.24843 0.778435
lowerneck -5.93051 0.129858 0.567721
upperneck 9.23677 0.501035 -3.84948
head 4.10814 0.086746 -1.36459
rclavicle -1.78906e-015 -7.95139e-015
rhumerus -90.6183 -45.9006 1.52526
rradius 10.9326
rwrist 62.4154
rhand -14.4629 -33.4024
rfingers 7.12502
rthumb 11.6828 -63.0566
lclavicle -1.78906e-015 -7.95139e-015
lhumerus -26.7917 -3.70184 86.1825
lradius 54.9744
lwrist 16.9552
lhand -24.9408 -18.4989
lfingers 7.12502
lthumb 1.56876 11.475
rfemur -45.9978 -1.43711 24.84
rtibia 38.2132
rfoot -10.5985 6.71153
rtoes -4.2237
lfemur -10.6126 -0.283084 -19.0784
ltibia 53.1267
lfoot 19.9579 -15.3642
ltoes -15.6772
357
root 0.494202 15.9961 29.8246 16.6985 4.93618 -0.311852
lowerback -14.9677 -1.61357 2.94248
upperback -4.89561 -2.65628 2.50611
thorax 3.18695 -1.31088 0.505303
lowerneck -5.4839 0.102338 0.429016
upperneck 9.27117 0.474899 -3.84149
head 4.02953 0.0732746 -1.33575
rclavicle 1.0666e-014 -1.35174e-014
rhumerus -88.0953 -46.1887 -2.10176
rradius 11.1051
rwrist 59.6412
rhand -14.5347 -33.277
rfingers 7.12502
rthumb 11.6135 -62.9352
lclavicle 1.0666e-014 -1.35174e-014
lhumerus -27.6229 -3.83512 86.7725
lradius 54.023
lwrist 17.2095
lhand -24.8474 -18.4896
lfingers 7.12502
lthumb 1.65895 11.4837
rfemur -45.2088 -2.93083 24.9888
rtibia 38.2476
rfoot -11.4531 7.31975
rtoes -3.03953
lfemur -12.3973 -0.978625 -19.3104
ltibia 55.8733
lfoot 22.0856 -13.8998
ltoes -16.6142
358
root 0.461858 16.019 30.0167 16.6846 5.01625 -0.819522
lowerback -14.7472 -1.4977 3.04124
upperback -5.07003 -2.50984 2.76073
thorax 2.89354 -1.24167 0.751061
lowerneck -5.18062 0.0374535 0.302127
upperneck 9.39393 0.399521 -3.82688
head 4.01006 0.0337846 -1.31136
rclavicle 2.2913e-014 -7.95139e-016
rhumerus -87.1521 -46.7018 -3.41134
rradius 11.0814
rwrist 58.5096
rhand -15.1567 -32.5237
rfingers 7.12502
rthumb 11.0136 -62.2148
lclavicle 2.2913e-014 -7.95139e-016
lhumerus -28.303 -3.81529 87.3147
lradius 52.9104
lwrist 17.0833
lhand -24.5941 -18.5054
lfingers 7.12502
lthumb 1.90354 11.4658
rfemur -44.3876 -2.25656 25.4947
rtibia 38.1478
rfoot -12.0212 6.5489
rtoes -3.969
lfemur -14.3833 -0.632099 -18.5087
ltibia 58.6869
lfoot 22.7504 -13.1546
ltoes -17.2735
359
root 0.456672 16.0378 30.2247 16.6743 4.79695 -1.13142
lowerback -14.9108 -1.25525 3.25231
upperback -5.01985 -2.23364 2.84579
thorax 3.03065 -1.10267 0.76328
lowerneck -5.25892 -0.0537817 0.286115
upperneck 9.53583 0.289419 -3.88448
head 4.07394 -0.0261138 -1.33587
rclavicle -1.62755e-015 -1.35174e-014
rhumerus -82.4221 -47.0399 -10.0209
rradius 11.3699
rwrist 53.8554
rhand -15.0948 -33.3357
rfingers 7.12502
rthumb 11.0733 -63.0236
lclavicle -1.62755e-015 -1.35174e-014
lhumerus -28.6292 -3.83229 87.8339
lradius 51.5804
lwrist 16.8515
lhand -24.6992 -18.4695
lfingers 7.12502
lthumb 1.80206 11.5026
rfemur -43.4598 -1.93553 25.8405
rtibia 38.0439
rfoot -12.7736 6.2225
rtoes -6.06505
lfemur -16.1464 -0.15321 -18.2
ltibia 61.3208
lfoot 22.4584 -11.8988
ltoes -15.9623
360
root 0.466121 16.0602 30.4456 16.7326 4.53616 -1.14265
lowerback -15.3231 -1.02934 3.35224
upperback -4.96384 -1.97207 2.7987
thorax 3.30727 -0.969187 0.693438
lowerneck -5.30038 -0.124936 0.24873
upperneck 9.72573 0.208403 -3.92861
head 4.14833 -0.0720569 -1.35109
rclavicle 1.43933e-014 9.54166e-015
rhumerus -78.9046 -47.3648 -14.7617
rradius 11.5954
rwrist 50.7338
rhand -14.7606 -33.7103
rfingers 7.12502
rthumb 11.3957 -63.3806
lclavicle 1.43933e-014 9.54166e-015
lhumerus -28.9727 -3.936 88.3322
lradius 50.0774
lwrist 16.6944
lhand -24.8774 -18.4136
lfingers 7.12502
lthumb 1.62996 11.5599
rfemur -42.4948 -1.91921 25.8726
rtibia 37.8473
rfoot -13.3587 6.31942
rtoes -5.12128
lfemur -17.7874 0.246616 -18.3326
ltibia 63.7169
lfoot 21.3672 -10.258
ltoes -13.5335
